<svg width="235" height="24" viewBox="0 0 235 24" fill="none" xmlns="http://www.w3.org/2000/svg">
<path d="M7.68 18.216C6.384 18.216 5.136 18.048 3.936 17.712C2.752 17.36 1.768 16.872 0.984 16.248L2.184 13.56C3.832 14.712 5.672 15.288 7.704 15.288C8.792 15.288 9.624 15.12 10.2 14.784C10.792 14.432 11.088 13.944 11.088 13.32C11.088 12.776 10.816 12.352 10.272 12.048C9.744 11.728 8.808 11.424 7.464 11.136C5.96 10.832 4.76 10.464 3.864 10.032C2.984 9.584 2.336 9.048 1.92 8.424C1.52 7.784 1.32 6.992 1.32 6.048C1.32 5.024 1.6 4.104 2.16 3.288C2.736 2.472 3.536 1.84 4.56 1.392C5.584 0.927999 6.768 0.696 8.112 0.696C9.328 0.696 10.496 0.871999 11.616 1.224C12.736 1.576 13.632 2.056 14.304 2.664L13.104 5.352C11.6 4.2 9.944 3.624 8.136 3.624C7.176 3.624 6.408 3.816 5.832 4.2C5.256 4.584 4.968 5.104 4.968 5.76C4.968 6.144 5.072 6.464 5.28 6.72C5.504 6.976 5.872 7.208 6.384 7.416C6.896 7.608 7.624 7.8 8.568 7.992C10.76 8.472 12.336 9.096 13.296 9.864C14.272 10.632 14.76 11.68 14.76 13.008C14.76 14.608 14.136 15.88 12.888 16.824C11.64 17.752 9.904 18.216 7.68 18.216ZM28.1574 12.216H20.1414C20.2054 13.352 20.5014 14.184 21.0294 14.712C21.5574 15.224 22.3414 15.48 23.3814 15.48C24.0054 15.48 24.6294 15.376 25.2534 15.168C25.8774 14.96 26.4534 14.656 26.9814 14.256L27.9414 16.704C27.3654 17.168 26.6454 17.536 25.7814 17.808C24.9334 18.064 24.0774 18.192 23.2134 18.192C21.1654 18.192 19.5574 17.632 18.3894 16.512C17.2214 15.376 16.6374 13.832 16.6374 11.88C16.6374 10.648 16.8854 9.552 17.3814 8.592C17.8934 7.616 18.6054 6.864 19.5174 6.336C20.4294 5.792 21.4614 5.52 22.6134 5.52C24.3254 5.52 25.6774 6.08 26.6694 7.2C27.6614 8.304 28.1574 9.8 28.1574 11.688V12.216ZM22.7094 8.064C22.0214 8.064 21.4614 8.264 21.0294 8.664C20.6134 9.064 20.3414 9.648 20.2134 10.416H25.0374C24.8454 8.848 24.0694 8.064 22.7094 8.064ZM37.5128 5.544C38.0248 5.544 38.4568 5.624 38.8088 5.784L38.7848 9.096C38.1928 8.824 37.6008 8.688 37.0088 8.688C36.0488 8.688 35.3128 8.952 34.8008 9.48C34.3048 9.992 34.0568 10.712 34.0568 11.64V18H30.4328V9.312C30.4328 8.016 30.3688 6.856 30.2408 5.832H33.6488L33.8888 7.92C34.1928 7.152 34.6648 6.568 35.3047 6.168C35.9608 5.752 36.6968 5.544 37.5128 5.544ZM52.3541 5.832V17.448C52.3541 19.384 51.7941 20.856 50.6741 21.864C49.5541 22.872 47.9221 23.376 45.7781 23.376C43.8421 23.376 42.1621 23 40.7381 22.248L41.2901 19.56C42.7621 20.296 44.2181 20.664 45.6581 20.664C46.6981 20.664 47.4741 20.416 47.9861 19.92C48.4981 19.44 48.7541 18.704 48.7541 17.712V15.6C48.3701 16.192 47.8341 16.688 47.1461 17.088C46.4581 17.472 45.6981 17.664 44.8661 17.664C43.8101 17.664 42.8741 17.416 42.0581 16.92C41.2421 16.408 40.6021 15.696 40.1381 14.784C39.6741 13.856 39.4421 12.792 39.4421 11.592C39.4421 10.392 39.6741 9.336 40.1381 8.424C40.6021 7.496 41.2421 6.784 42.0581 6.288C42.8741 5.776 43.8101 5.52 44.8661 5.52C45.7141 5.52 46.4821 5.704 47.1701 6.072C47.8581 6.44 48.3861 6.936 48.7541 7.56V5.832H52.3541ZM45.9221 14.904C46.8021 14.904 47.4901 14.616 47.9861 14.04C48.4981 13.448 48.7541 12.632 48.7541 11.592C48.7541 10.568 48.5061 9.768 48.0101 9.192C47.5141 8.6 46.8181 8.304 45.9221 8.304C45.0261 8.304 44.3221 8.6 43.8101 9.192C43.2981 9.768 43.0421 10.568 43.0421 11.592C43.0421 12.616 43.2981 13.424 43.8101 14.016C44.3221 14.608 45.0261 14.904 45.9221 14.904ZM66.1731 12.216H58.1571C58.2211 13.352 58.5171 14.184 59.0451 14.712C59.5731 15.224 60.3571 15.48 61.3971 15.48C62.0211 15.48 62.6451 15.376 63.2691 15.168C63.8931 14.96 64.4691 14.656 64.9971 14.256L65.9571 16.704C65.3811 17.168 64.6611 17.536 63.7971 17.808C62.9491 18.064 62.0931 18.192 61.2291 18.192C59.1811 18.192 57.5731 17.632 56.4051 16.512C55.2371 15.376 54.6531 13.832 54.6531 11.88C54.6531 10.648 54.9011 9.552 55.3971 8.592C55.9091 7.616 56.6211 6.864 57.5331 6.336C58.4451 5.792 59.4771 5.52 60.6291 5.52C62.3411 5.52 63.6931 6.08 64.6851 7.2C65.6771 8.304 66.1731 9.8 66.1731 11.688V12.216ZM60.7251 8.064C60.0371 8.064 59.4771 8.264 59.0451 8.664C58.6291 9.064 58.3571 9.648 58.2291 10.416H63.0531C62.8611 8.848 62.0851 8.064 60.7251 8.064ZM80.214 5.832L74.598 18.648C73.91 20.2 73.038 21.336 71.982 22.056C70.942 22.792 69.662 23.264 68.142 23.472L67.302 20.688C68.422 20.448 69.262 20.144 69.822 19.776C70.398 19.408 70.846 18.872 71.166 18.168L71.526 17.376L66.51 5.832H70.302L73.422 13.728L76.638 5.832H80.214Z" fill="#F42B2B"/>
<path d="M92.8333 18L85.3933 10.104V18H81.6493V0.912H85.3933V8.424L92.5693 0.912H97.0333L89.0893 9.072L97.3453 18H92.8333ZM109.221 5.832V18H105.693V16.224C105.309 16.864 104.805 17.352 104.181 17.688C103.557 18.024 102.853 18.192 102.069 18.192C100.549 18.192 99.4126 17.768 98.6606 16.92C97.9086 16.072 97.5326 14.792 97.5326 13.08V5.832H101.157V13.152C101.157 14.624 101.789 15.36 103.053 15.36C103.805 15.36 104.413 15.104 104.877 14.592C105.341 14.08 105.573 13.408 105.573 12.576V5.832H109.221ZM122.575 15.288V18H111.847V15.456L117.991 8.544H111.943V5.832H122.335V8.28L116.095 15.288H122.575ZM139.766 5.52C141.158 5.52 142.19 5.944 142.862 6.792C143.55 7.624 143.894 8.904 143.894 10.632V18H140.27V10.752C140.27 9.904 140.134 9.296 139.862 8.928C139.59 8.544 139.142 8.352 138.518 8.352C137.782 8.352 137.214 8.608 136.814 9.12C136.414 9.632 136.214 10.352 136.214 11.28V18H132.59V10.752C132.59 9.92 132.446 9.312 132.158 8.928C131.886 8.544 131.446 8.352 130.838 8.352C130.102 8.352 129.526 8.608 129.11 9.12C128.71 9.632 128.51 10.352 128.51 11.28V18H124.886V9.312C124.886 8.016 124.822 6.856 124.694 5.832H128.102L128.318 7.656C128.686 6.968 129.198 6.44 129.854 6.072C130.526 5.704 131.294 5.52 132.158 5.52C133.966 5.52 135.166 6.272 135.758 7.776C136.158 7.088 136.71 6.544 137.414 6.144C138.134 5.728 138.918 5.52 139.766 5.52ZM146.753 5.832H150.377V18H146.753V5.832ZM150.497 0.119998V3.528H146.633V0.119998H150.497ZM159.099 18.192C157.115 18.192 155.555 17.632 154.419 16.512C153.299 15.392 152.739 13.864 152.739 11.928C152.739 10.664 153.011 9.552 153.555 8.592C154.099 7.616 154.859 6.864 155.835 6.336C156.827 5.792 157.971 5.52 159.267 5.52C160.147 5.52 161.003 5.656 161.835 5.928C162.667 6.2 163.331 6.568 163.827 7.032L162.867 9.552C162.387 9.168 161.859 8.872 161.283 8.664C160.707 8.44 160.147 8.328 159.603 8.328C158.611 8.328 157.835 8.632 157.275 9.24C156.731 9.832 156.459 10.704 156.459 11.856C156.459 13.024 156.731 13.912 157.275 14.52C157.819 15.112 158.595 15.408 159.603 15.408C160.147 15.408 160.707 15.304 161.283 15.096C161.859 14.872 162.387 14.568 162.867 14.184L163.827 16.704C163.299 17.168 162.611 17.536 161.763 17.808C160.915 18.064 160.027 18.192 159.099 18.192ZM173.062 5.52C175.942 5.52 177.382 7.224 177.382 10.632V18H173.758V10.8C173.758 9.952 173.598 9.336 173.278 8.952C172.974 8.552 172.486 8.352 171.814 8.352C171.014 8.352 170.374 8.608 169.894 9.12C169.414 9.632 169.174 10.32 169.174 11.184V18H165.55V0.335999H169.174V7.488C169.606 6.848 170.158 6.36 170.83 6.024C171.502 5.688 172.246 5.52 173.062 5.52ZM191.189 12.216H183.173C183.237 13.352 183.533 14.184 184.061 14.712C184.589 15.224 185.373 15.48 186.413 15.48C187.037 15.48 187.661 15.376 188.285 15.168C188.909 14.96 189.485 14.656 190.013 14.256L190.973 16.704C190.397 17.168 189.677 17.536 188.813 17.808C187.965 18.064 187.109 18.192 186.245 18.192C184.197 18.192 182.589 17.632 181.421 16.512C180.253 15.376 179.669 13.832 179.669 11.88C179.669 10.648 179.917 9.552 180.413 8.592C180.925 7.616 181.637 6.864 182.549 6.336C183.461 5.792 184.493 5.52 185.645 5.52C187.357 5.52 188.709 6.08 189.701 7.2C190.693 8.304 191.189 9.8 191.189 11.688V12.216ZM185.741 8.064C185.053 8.064 184.493 8.264 184.061 8.664C183.645 9.064 183.373 9.648 183.245 10.416H188.069C187.877 8.848 187.101 8.064 185.741 8.064ZM205.23 5.856L199.878 18H196.806L191.526 5.856H195.318L198.438 13.728L201.654 5.856H205.23Z" fill="white"/>
<path d="M210.049 14.136V18H206.137V14.136H210.049ZM219.786 5.544C220.298 5.544 220.73 5.624 221.082 5.784L221.058 9.096C220.466 8.824 219.874 8.688 219.282 8.688C218.322 8.688 217.586 8.952 217.074 9.48C216.578 9.992 216.33 10.712 216.33 11.64V18H212.706V9.312C212.706 8.016 212.642 6.856 212.514 5.832H215.922L216.162 7.92C216.466 7.152 216.938 6.568 217.578 6.168C218.234 5.752 218.97 5.544 219.786 5.544ZM234.166 5.832V18H230.638V16.224C230.254 16.864 229.75 17.352 229.126 17.688C228.502 18.024 227.798 18.192 227.014 18.192C225.494 18.192 224.358 17.768 223.606 16.92C222.854 16.072 222.478 14.792 222.478 13.08V5.832H226.102V13.152C226.102 14.624 226.734 15.36 227.998 15.36C228.75 15.36 229.358 15.104 229.822 14.592C230.286 14.08 230.518 13.408 230.518 12.576V5.832H234.166Z" fill="#F42B2B"/>
</svg>
